<?xml version="1.0" encoding="UTF-8" standalone="no"?>
<!-- Generator: Adobe Illustrator 12.0.0, SVG Export Plug-In . SVG Version: 6.00 Build 51448)  -->
<svg xmlns:dc="http://purl.org/dc/elements/1.1/" xmlns:cc="http://creativecommons.org/ns#" xmlns:rdf="http://www.w3.org/1999/02/22-rdf-syntax-ns#" xmlns:svg="http://www.w3.org/2000/svg" xmlns="http://www.w3.org/2000/svg" xmlns:xlink="http://www.w3.org/1999/xlink" xmlns:sodipodi="http://sodipodi.sourceforge.net/DTD/sodipodi-0.dtd" xmlns:inkscape="http://www.inkscape.org/namespaces/inkscape" version="1.0" id="Layer_1" width="102.041" height="70.978996" viewBox="0 0 102.041 70.978997" overflow="visible" enable-background="new 0 0 433.836 502.06" xml:space="preserve" inkscape:version="0.47 r22583" sodipodi:docname="pineapple outline.svg" style="overflow:visible"><metadata id="metadata685"><rdf:RDF><cc:Work rdf:about=""><dc:format>image/svg+xml</dc:format><dc:type rdf:resource="http://purl.org/dc/dcmitype/StillImage"/><dc:title/></cc:Work></rdf:RDF></metadata><defs id="defs683"><inkscape:perspective sodipodi:type="inkscape:persp3d" inkscape:vp_x="0 : 251.03 : 1" inkscape:vp_y="0 : 1000 : 0" inkscape:vp_z="433.836 : 251.03 : 1" inkscape:persp3d-origin="216.918 : 167.35333 : 1" id="perspective687"/>
	
	
	
	
	

		
		
		
	
			
			
			
			
		
				
				
				
				
			
					
					
				<linearGradient inkscape:collect="always" xlink:href="#XMLID_9_" id="linearGradient5462" gradientUnits="userSpaceOnUse" x1="180.354" y1="336.33109" x2="257.66019" y2="336.33109"/>
						
						
						
						
						
						
						
					</defs><sodipodi:namedview pagecolor="#ffffff" bordercolor="#666666" borderopacity="1" objecttolerance="10" gridtolerance="10" guidetolerance="10" inkscape:pageopacity="0" inkscape:pageshadow="2" inkscape:window-width="1366" inkscape:window-height="706" id="namedview681" showgrid="false" inkscape:zoom="2.6590798" inkscape:cx="134.14659" inkscape:cy="30.248097" inkscape:window-x="-8" inkscape:window-y="-8" inkscape:window-maximized="1" inkscape:current-layer="Layer_1"/>
<g id="g47" transform="translate(-165.971, -214.112)" style="fill:#ffff00">
							<path d="m 240.054,264.475 c 0,11.382 -9.695,20.616 -21.656,20.616 -11.962,0 -21.655,-9.234 -21.655,-20.616 0,-11.387 9.693,-20.615 21.655,-20.615 11.961,0 21.656,9.227 21.656,20.615 z" id="path49" style="fill:#ffff00"/>
							<path d="m 242.064,257.871 c 0.399,1.786 0.479,3.618 0.371,5.454 9.213,-2.194 15.888,-10.065 25.577,-11.852 -8.168,-4.682 -17.921,7.068 -26.35,5.998" id="path51" style="fill:#ffff00"/>
							<path d="m 179.482,259.773 c 2.672,1.434 5.829,2.162 8.823,2.493 4.092,0.446 5.077,0.334 4.76,-3.953 -1.999,-0.041 -4.064,-0.419 -6.05,-0.744 -3.708,-0.601 -6.529,-3.366 -9.771,-4.938 -3.655,-1.775 -7.762,-0.673 -11.273,-1.986 5.512,2.056 8.567,6.464 13.511,9.128 z" id="path53" style="fill:#ffff00"/>
							<path d="m 196.596,253.923 c 0.835,-1.547 1.838,-2.994 3.001,-4.317 -1.704,-1.445 -5.474,-4.551 -5.837,-4.838 -1.491,-1.172 -3.108,-1.938 -4.867,-2.673 -2.588,-1.092 -5.208,-2.132 -7.693,-3.464 -1.215,-0.654 -2.327,-1.472 -3.523,-2.143 -1.143,-0.645 -2.339,-1.202 -3.168,-2.252 1.127,2.061 2.189,4.077 4.017,5.683 1.829,1.606 3.887,3.194 6.112,4.211 2.607,1.195 4.465,3.045 6.655,4.803 1.501,1.207 3.419,3.684 5.303,4.99 z" id="path55" style="fill:#ffff00"/>
							<path d="m 187.112,226.244 c -0.122,-0.685 -0.298,-1.353 -0.497,-2.014 -0.224,-0.402 -0.449,-0.804 -0.703,-1.188 l 1.2,3.202 z m 6.82,5.207 c -2.396,-2.744 -6.165,-4.912 -7.648,-8.288 0.125,0.346 0.231,0.709 0.332,1.067 2.361,4.155 3.244,9.049 6.499,12.735 1.833,2.064 6.232,7.869 9.043,10.17 1.313,-1.099 2.742,-2.08 4.282,-2.889 -3.965,-2.305 -10.076,-10.011 -12.508,-12.795 z" id="path57" style="fill:#ffff00"/>
							<path d="m 208.499,243.284 c 1.585,-0.658 3.26,-1.151 5,-1.47 -1.497,-2.904 -2.397,-7.481 -4.415,-9.877 -2.687,-3.191 -5.773,-6.058 -7.23,-10.095 -0.662,-1.836 -0.814,-3.927 -0.685,-5.92 -0.368,5.763 -0.907,11.725 2.787,16.727 2.202,2.98 3.611,6.909 4.543,10.635 z" id="path59" style="fill:#ffff00"/>
							<path d="m 218.119,241.383 c 0.753,0 1.494,0.042 2.235,0.108 -0.088,-4.644 -1.546,-9.885 -1.402,-14.263 0.156,-4.628 0.932,-8.961 -1.691,-13.116 0.93,1.474 0.259,6.252 0.111,8.055 -0.281,3.356 -1.811,6.447 -2.177,9.783 -0.299,2.641 -0.068,6.695 0.299,9.575 0.862,-0.09 1.735,-0.142 2.625,-0.142 z" id="path61" style="fill:#ffff00"/>
							<path d="m 228.472,243.626 c 0.695,-2.421 1.631,-5.093 2.046,-7.315 0.602,-3.255 0.665,-6.459 1.638,-9.678 0.392,-1.307 3.26,-9.608 4.261,-9.522 -2.985,-0.247 -8.453,7.874 -9.105,10.733 -0.1,0.427 -0.154,0.857 -0.193,1.294 -0.113,1.434 -0.01,2.906 -0.323,4.309 -0.496,2.26 -2.424,6.198 -2.836,8.641 1.575,0.372 3.085,0.889 4.512,1.538 z" id="path63" style="fill:#ffff00"/>
							<path d="m 235.108,248.028 c 0.977,-1.511 1.902,-3.541 2.774,-4.788 1.242,-1.769 2.381,-3.613 3.468,-5.366 2.687,-4.322 5.467,-9.444 5.533,-14.711 -0.07,5.975 -7.525,10.553 -11.145,14.528 -1.585,1.741 -4.129,4.456 -5.299,6.93 1.697,0.959 3.27,2.094 4.669,3.407 z" id="path65" style="fill:#ffff00"/>
							<path d="m 250.479,242.648 c -1.136,1.205 -2.132,3.236 -3.721,3.926 -1.718,0.74 -3.828,0.052 -5.624,0.426 -0.567,0.118 -2.924,1.655 -4.515,2.591 1.361,1.541 2.505,3.265 3.413,5.118 2.772,-2.657 8.313,-4.834 10.872,-7.249 3.225,-3.04 4.649,-7.885 8.369,-10.347 -3.402,0.573 -6.443,3.015 -8.794,5.535 z" id="path67" style="fill:#ffff00"/>
						</g>
</svg>