/* XPM */
static char * moment_xpm[] = {
"20 19 96 2",
"  	c None",
". 	c #000000",
"+ 	c #F8F635",
"@ 	c #78772A",
"# 	c #FAF96A",
"$ 	c #FBF97B",
"% 	c #FBFA8D",
"& 	c #FBFA9F",
"* 	c #FCFBB1",
"= 	c #FDFDC2",
"- 	c #FDFDD4",
"; 	c #F8F636",
"> 	c #020200",
", 	c #FAF86B",
"' 	c #FBF97C",
") 	c #FBFA8E",
"! 	c #FCFB9F",
"~ 	c #FDFCB2",
"{ 	c #FDFDC3",
"] 	c #FEFEE6",
"^ 	c #F9F637",
"/ 	c #F9F748",
"( 	c #FAF86C",
"_ 	c #FBF97D",
": 	c #FCFAA1",
"< 	c #FCFCB2",
"[ 	c #FDFDD5",
"} 	c #FEFEE7",
"| 	c #F8F637",
"1 	c #FAFA7E",
"2 	c #FBFA8F",
"3 	c #FCFBA1",
"4 	c #FEFDD6",
"5 	c #F8F638",
"6 	c #F9F849",
"7 	c #FAF96D",
"8 	c #FCFA90",
"9 	c #FDFDC4",
"0 	c #FDFDD6",
"a 	c #FEFEE8",
"b 	c #F9F739",
"c 	c #F9F74B",
"d 	c #FBFA91",
"e 	c #FDFCB4",
"f 	c #FDFDC5",
"g 	c #FDFDD7",
"h 	c #F9F639",
"i 	c #FAF74B",
"j 	c #FAF96F",
"k 	c #FAFA80",
"l 	c #FCFBA3",
"m 	c #FDFCB5",
"n 	c #FEFDC7",
"o 	c #FEFDD8",
"p 	c #FFFEEA",
"q 	c #F9F73A",
"r 	c #F9F74C",
"s 	c #FBFA80",
"t 	c #FBFA92",
"u 	c #FDFBA4",
"v 	c #FDFCC7",
"w 	c #FEFDD9",
"x 	c #FEFEEA",
"y 	c #F9F73B",
"z 	c #FAF970",
"A 	c #FBF981",
"B 	c #FCFA93",
"C 	c #FCFBA4",
"D 	c #FDFCB6",
"E 	c #FDFDC8",
"F 	c #FEFDDA",
"G 	c #FEFFEB",
"H 	c #F9F73C",
"I 	c #F9F74D",
"J 	c #FAF971",
"K 	c #FBF982",
"L 	c #FCFBA5",
"M 	c #FDFCB7",
"N 	c #FDFDDA",
"O 	c #FFFEEC",
"P 	c #F9F84E",
"Q 	c #FAF972",
"R 	c #FBF983",
"S 	c #FCFA94",
"T 	c #FCFBA6",
"U 	c #FDFDC9",
"V 	c #FEFEDB",
"W 	c #FEFEED",
"X 	c #F9F63D",
"Y 	c #F9F74F",
"Z 	c #FBF972",
"` 	c #FBFA95",
" .	c #FDFBA7",
"..	c #FDFCB9",
"+.	c #FDFDDC",
"@.	c #FEFFED",
"                                        ",
"                                        ",
"                                        ",
"      . .                     .         ",
"      . + . # # $ % & * = - . .         ",
"      . ; . > , ' ) ! ~ { . ] .         ",
"      . ^ / . ( _ ) : < . [ } .         ",
"      . | / . . 1 2 3 ~ . 4 } .         ",
"      . 5 6 . 7 . 8 3 . 9 0 a .         ",
"      . b c . 7 . d . e f g a .         ",
"      . h i . j k . l m n o p .         ",
"      . q r . j s t u m v w x .         ",
"      . y r . z A B C D E F G .         ",
"      . H I . J K B L M E N O .         ",
"      . H P . Q R S T M U V W .         ",
"      . X Y . Z R `  ...U +.@..         ",
"                                        ",
"                                        ",
"                                        "};
